<?xml version="1.0" encoding="UTF-8" standalone="no"?>
<svg
   height="512pt"
   viewBox="0 0 512 512"
   width="512pt"
   version="1.1"
   id="svg11"
   sodipodi:docname="parachute-nocolor.svg"
   inkscape:version="1.4.2 (ebf0e940, 2025-05-08)"
   xmlns:inkscape="http://www.inkscape.org/namespaces/inkscape"
   xmlns:sodipodi="http://sodipodi.sourceforge.net/DTD/sodipodi-0.dtd"
   xmlns="http://www.w3.org/2000/svg"
   xmlns:svg="http://www.w3.org/2000/svg">
  <defs
     id="defs11">
    <inkscape:path-effect
       effect="mirror_symmetry"
       start_point="256,0"
       end_point="256,512"
       center_point="256,256"
       id="path-effect13"
       is_visible="false"
       lpeversion="1.2"
       lpesatellites=""
       mode="vertical"
       discard_orig_path="false"
       fuse_paths="false"
       oposite_fuse="false"
       split_items="false"
       split_open="false"
       link_styles="false" />
    <inkscape:path-effect
       effect="mirror_symmetry"
       start_point="256,0"
       end_point="256,512"
       center_point="256,256"
       id="path-effect12"
       is_visible="true"
       lpeversion="1.2"
       lpesatellites=""
       mode="vertical"
       discard_orig_path="false"
       fuse_paths="false"
       oposite_fuse="false"
       split_items="true"
       split_open="false"
       link_styles="false" />
    <filter
       id="mask-powermask-path-effect2_inverse"
       inkscape:label="filtermask-powermask-path-effect2"
       style="color-interpolation-filters:sRGB"
       height="100"
       width="100"
       x="-50"
       y="-50">
      <feColorMatrix
         id="mask-powermask-path-effect2_primitive1"
         values="1"
         type="saturate"
         result="fbSourceGraphic" />
      <feColorMatrix
         id="mask-powermask-path-effect2_primitive2"
         values="-1 0 0 0 1 0 -1 0 0 1 0 0 -1 0 1 0 0 0 1 0 "
         in="fbSourceGraphic" />
    </filter>
    <filter
       id="mask-powermask-path-effect3_inverse"
       inkscape:label="filtermask-powermask-path-effect3"
       style="color-interpolation-filters:sRGB"
       height="100"
       width="100"
       x="-50"
       y="-50">
      <feColorMatrix
         id="mask-powermask-path-effect3_primitive1"
         values="1"
         type="saturate"
         result="fbSourceGraphic" />
      <feColorMatrix
         id="mask-powermask-path-effect3_primitive2"
         values="-1 0 0 0 1 0 -1 0 0 1 0 0 -1 0 1 0 0 0 1 0 "
         in="fbSourceGraphic" />
    </filter>
    <filter
       id="mask-powermask-path-effect4_inverse"
       inkscape:label="filtermask-powermask-path-effect4"
       style="color-interpolation-filters:sRGB"
       height="100"
       width="100"
       x="-50"
       y="-50">
      <feColorMatrix
         id="mask-powermask-path-effect4_primitive1"
         values="1"
         type="saturate"
         result="fbSourceGraphic" />
      <feColorMatrix
         id="mask-powermask-path-effect4_primitive2"
         values="-1 0 0 0 1 0 -1 0 0 1 0 0 -1 0 1 0 0 0 1 0 "
         in="fbSourceGraphic" />
    </filter>
    <filter
       id="mask-powermask-path-effect5_inverse"
       inkscape:label="filtermask-powermask-path-effect5"
       style="color-interpolation-filters:sRGB"
       height="100"
       width="100"
       x="-50"
       y="-50">
      <feColorMatrix
         id="mask-powermask-path-effect5_primitive1"
         values="1"
         type="saturate"
         result="fbSourceGraphic" />
      <feColorMatrix
         id="mask-powermask-path-effect5_primitive2"
         values="-1 0 0 0 1 0 -1 0 0 1 0 0 -1 0 1 0 0 0 1 0 "
         in="fbSourceGraphic" />
    </filter>
  </defs>
  <sodipodi:namedview
     id="namedview11"
     pagecolor="#ffffff"
     bordercolor="#000000"
     borderopacity="0.25"
     inkscape:showpageshadow="2"
     inkscape:pageopacity="0.0"
     inkscape:pagecheckerboard="0"
     inkscape:deskcolor="#d1d1d1"
     inkscape:document-units="pt"
     inkscape:zoom="0.2188634"
     inkscape:cx="239.87565"
     inkscape:cy="1391.2788"
     inkscape:window-width="1776"
     inkscape:window-height="1078"
     inkscape:window-x="8"
     inkscape:window-y="55"
     inkscape:window-maximized="0"
     inkscape:current-layer="svg11" />
  <path
     id="path7"
     style="fill:#000000;stroke-width:1.1984;fill-opacity:1"
     d="M 306.09229 50.853516 C 293.50002 51.344187 280.77547 54.320644 268.32275 60.127441 L 270.29004 65.195801 C 289.3121 74.445325 305.92548 89.171376 317.52246 108.41309 C 319.64924 111.89958 321.60979 115.57247 323.37451 119.35693 C 337.14784 148.89395 337.15672 181.23094 326.13867 209.02734 L 326.95459 211.12939 C 352.34111 201.5693 377.79618 206.02728 399.98584 219.57422 C 419.81706 189.51624 423.91622 149.73376 407.33936 114.18457 C 397.99942 94.154998 383.41476 78.306861 366.07324 67.524902 C 347.69836 56.123345 327.07939 50.03573 306.09229 50.853516 z " />
  <path
     d="m 435.02635,347.19866 c -4.5354,2.11489 -10.06817,1.10507 -13.58606,-2.44037 -3.46475,-3.49789 -4.44644,-8.95943 -2.36397,-13.4325 2.1654,-4.67186 7.19167,-7.50634 12.31422,-6.88888 4.89093,0.58599 9.04396,4.26397 10.20318,9.05389 1.32474,5.47719 -1.44224,11.31798 -6.56737,13.70786 z m 0,0"
     id="path10"
     style="stroke-width:1.1984"
     sodipodi:insensitive="true" />
  <path
     d="M 257.49591,47.288538 C 231.97749,36.936344 198.4735,40.421319 171.11687,53.177926 141.89772,66.803038 119.89801,90.914705 108.81583,121.31435 76.028064,137.46612 52.902879,168.04774 45.904096,204.29105 24.784973,220.01187 9.8037463,242.80321 3.6171122,268.7145 c -6.3078371,26.43782 -3.20600344,55.09929 8.7394698,80.71644 18.974657,40.69129 58.239318,67.33967 102.473558,69.54302 0.22169,0.0107 0.44146,0.0163 0.66149,0.0118 l 246.9105,62.43773 c 0,0 0.004,-0.002 0.005,0.002 5.575,1.68742 11.51047,-1.08033 13.8056,-6.43766 l -0.002,-0.004 43.00008,-88.91354 c 2.9987,-6.19678 0.18164,-13.70014 -6.2975,-16.32959 -5.91358,-2.40248 -12.67631,0.5186 -15.45739,6.26267 l -10.0109,20.70091 22.67462,-166.5517 c 18.08395,-2.90076 36.8115,1.15026 52.42245,11.26711 l -21.56683,44.60156 c -2.88127,5.96125 -0.38793,13.12486 5.56907,16.00811 3.37537,1.63362 7.13725,1.53744 10.28955,0.0675 2.40983,-1.12371 4.46894,-3.05494 5.71658,-5.64083 l 24.53893,-50.7446 c 0.14712,-0.1719 0.28799,-0.34606 0.42267,-0.5225 C 514.25909,209.90196 519.0841,162.69422 500.1035,121.99021 488.15892,96.373261 468.20101,75.571911 443.90433,63.410363 423.02907,52.959105 399.63712,49.228792 376.92779,52.556088 342.86946,33.816409 293.6347,31.876443 257.49591,47.288538 Z m -8.18559,188.296852 c 1.91208,-1.07241 3.77915,-2.03085 5.53561,-2.8499 l 0.0127,-0.006 0.0127,-0.006 c 1.94737,-0.90808 3.97476,-1.75536 5.96791,-2.49879 16.1499,-5.92961 33.41578,-6.2537 50.05216,-0.93831 L 345.85348,427.90179 216.21496,273.4969 c 6.61789,-16.24687 18.08469,-29.37269 33.09536,-37.91151 z m -53.92675,50.38356 c 0,0 0.005,0.002 0.0107,-1.9e-4 L 306.83261,418.70092 164.91879,329.16668 c 3.60697,-14.66208 11.90044,-31.75743 30.46486,-43.1982 z m 99.83167,153.74339 -167.22013,-42.28505 c 2.28231,-18.45545 11.21686,-35.40554 25.06539,-47.40029 z m 38.63438,-218.25951 c 0.006,-0.0186 0.018,-0.0393 0.0266,-0.0537 20.66515,-6.8471 39.08597,-2.22433 52.64477,4.43322 l -22.63324,166.2638 z m 61.61766,-17.90656 c -17.0157,-7.98973 -34.89147,-10.94522 -52.31827,-8.71762 6.02934,-26.66951 3.08289,-54.80945 -8.91401,-80.5369 -1.95464,-4.19175 -4.12849,-8.25544 -6.46163,-12.08473 C 318.7956,87.318384 306.742,74.473523 292.65278,64.540656 c 22.29374,-4.672718 45.5319,-0.219887 67.09153,13.161141 15.99476,9.943035 28.6958,24.309293 36.73397,41.547203 12.77441,27.3948 12.24979,58.17087 -1.011,84.29727 z M 258.13825,72.913086 c 20.31714,8.035947 37.76238,22.839701 49.11793,41.686604 l 0.0365,0.0553 c 1.88227,3.08397 3.63753,6.37182 5.22023,9.76594 12.13539,26.02443 12.84572,55.06245 2.24789,80.99563 -19.30793,-5.4281 -39.92254,-5.03005 -58.88811,1.164 L 192.41801,70.501733 c 21.33937,-6.918743 44.26555,-6.147847 65.72027,2.411335 z M 130.32042,132.4174 c 7.24286,-21.87396 21.3819,-39.902827 40.37517,-51.786335 L 234.15417,216.7184 c -16.92107,10.54533 -30.48811,26.11228 -38.6852,44.35585 -26.70415,-8.51832 -48.51488,-27.73256 -60.66412,-53.78669 -1.62426,-3.48322 -3.03583,-7.00879 -4.21662,-10.54901 -7.06825,-20.7738 -7.16474,-43.61059 -0.2746,-64.30252 z m -28.68199,21.86619 c -1.32171,16.87117 0.7609,34.00918 6.23748,50.1069 1.4481,4.33498 3.1985,8.72011 5.20656,13.02639 11.98898,25.71047 31.62689,46.03607 55.89292,58.5528 -13.01223,11.89405 -22.12367,27.34607 -26.91046,45.71425 -28.52314,-6.63709 -52.423752,-26.01314 -65.194204,-53.39947 -8.034211,-17.22941 -10.877315,-36.19768 -8.215151,-54.83542 3.40006,-23.64598 15.291956,-44.58869 32.982855,-59.16545 z M 34.078968,339.30163 C 17.72764,304.23609 22.303734,265.75479 44.282228,238.73985 c 1.326009,13.63242 4.970523,27.03081 10.866101,39.67392 14.475822,31.04349 40.465347,53.83588 71.869251,63.95908 -12.25365,14.40698 -20.20121,32.25526 -22.71447,51.34525 C 73.848052,388.34348 47.583397,368.26197 34.078968,339.30163 Z M 478.3866,132.11758 c 13.50839,28.96883 12.00912,61.99686 -3.44953,88.77107 -16.24549,-10.3478 -35.02242,-15.73426 -53.93303,-15.61427 12.42469,-30.55564 11.67047,-65.11545 -2.80338,-96.15469 -5.89755,-12.647349 -13.82063,-24.055763 -23.41558,-33.832324 34.82243,0.517899 67.24624,21.756196 83.60152,56.830214 z"
     id="path11"
     sodipodi:nodetypes="cscccscccccccccccccsscccsccccscscccccccccccccccccccccscccsccccsccccccccsccccssccsccsssccssccscsc"
     style="stroke-width:1.1984"
     sodipodi:insensitive="true" />
  <path
     style="fill:#000000;stroke-width:0.8988"
     d="M 160.02408,30.081676 295.31606,320.21625"
     id="path19"
     sodipodi:nodetypes="cc" />
</svg>
